<mxfile host="app.diagrams.net" modified="2023-06-08T14:35:38.210Z" agent="Mozilla/5.0 (Windows NT 10.0; Win64; x64) AppleWebKit/537.36 (KHTML, like Gecko) Chrome/112.0.0.0 Safari/537.36" etag="dtMItY3yoLxjlLvyOJP5" version="21.3.7" type="github">
  <diagram name="第 1 页" id="uYOzKwJhcK0Re-k-pvqv">
    <mxGraphModel dx="1008" dy="439" grid="1" gridSize="10" guides="1" tooltips="1" connect="1" arrows="1" fold="1" page="1" pageScale="1" pageWidth="827" pageHeight="1169" math="0" shadow="0">
      <root>
        <mxCell id="0" />
        <mxCell id="1" parent="0" />
        <mxCell id="0DfjW3Tcr3vnO2-7GO_Q-34" style="edgeStyle=orthogonalEdgeStyle;rounded=0;orthogonalLoop=1;jettySize=auto;html=1;exitX=0.5;exitY=1;exitDx=0;exitDy=0;entryX=0.5;entryY=0;entryDx=0;entryDy=0;" edge="1" parent="1" source="0DfjW3Tcr3vnO2-7GO_Q-2" target="0DfjW3Tcr3vnO2-7GO_Q-3">
          <mxGeometry relative="1" as="geometry" />
        </mxCell>
        <mxCell id="0DfjW3Tcr3vnO2-7GO_Q-2" value="&lt;h1 style=&quot;box-sizing: border-box; outline: 0px; margin: 0px; padding: 0px; font-family: &amp;quot;PingFang SC&amp;quot;, &amp;quot;Microsoft YaHei&amp;quot;, SimHei, Arial, SimSun; overflow-wrap: break-word; color: rgb(34, 34, 38); word-break: break-all; font-variant-ligatures: common-ligatures; text-align: start; background-color: rgb(255, 255, 255); user-select: text !important;&quot; id=&quot;articleContentId&quot; class=&quot;title-article&quot;&gt;&lt;font style=&quot;font-size: 18px;&quot;&gt;WSN西瓜种植环境控制系统流程图&lt;/font&gt;&lt;/h1&gt;" style="rounded=1;whiteSpace=wrap;html=1;" vertex="1" parent="1">
          <mxGeometry x="190" y="110" width="340" height="60" as="geometry" />
        </mxCell>
        <mxCell id="0DfjW3Tcr3vnO2-7GO_Q-36" style="edgeStyle=orthogonalEdgeStyle;rounded=0;orthogonalLoop=1;jettySize=auto;html=1;exitX=0.5;exitY=1;exitDx=0;exitDy=0;entryX=0.5;entryY=0;entryDx=0;entryDy=0;" edge="1" parent="1" source="0DfjW3Tcr3vnO2-7GO_Q-3" target="0DfjW3Tcr3vnO2-7GO_Q-4">
          <mxGeometry relative="1" as="geometry" />
        </mxCell>
        <mxCell id="0DfjW3Tcr3vnO2-7GO_Q-3" value="登陆界面" style="rounded=0;whiteSpace=wrap;html=1;" vertex="1" parent="1">
          <mxGeometry x="300" y="200" width="120" height="40" as="geometry" />
        </mxCell>
        <mxCell id="0DfjW3Tcr3vnO2-7GO_Q-35" style="edgeStyle=orthogonalEdgeStyle;rounded=0;orthogonalLoop=1;jettySize=auto;html=1;exitX=0.5;exitY=1;exitDx=0;exitDy=0;entryX=0.5;entryY=0;entryDx=0;entryDy=0;" edge="1" parent="1" source="0DfjW3Tcr3vnO2-7GO_Q-4" target="0DfjW3Tcr3vnO2-7GO_Q-5">
          <mxGeometry relative="1" as="geometry" />
        </mxCell>
        <mxCell id="0DfjW3Tcr3vnO2-7GO_Q-57" style="rounded=0;orthogonalLoop=1;jettySize=auto;html=1;exitX=1;exitY=1;exitDx=0;exitDy=0;entryX=0;entryY=0.5;entryDx=0;entryDy=0;" edge="1" parent="1" source="0DfjW3Tcr3vnO2-7GO_Q-4" target="0DfjW3Tcr3vnO2-7GO_Q-38">
          <mxGeometry relative="1" as="geometry" />
        </mxCell>
        <mxCell id="0DfjW3Tcr3vnO2-7GO_Q-64" style="rounded=0;orthogonalLoop=1;jettySize=auto;html=1;exitX=0;exitY=1;exitDx=0;exitDy=0;entryX=1;entryY=0.5;entryDx=0;entryDy=0;" edge="1" parent="1" source="0DfjW3Tcr3vnO2-7GO_Q-4" target="0DfjW3Tcr3vnO2-7GO_Q-61">
          <mxGeometry relative="1" as="geometry" />
        </mxCell>
        <mxCell id="0DfjW3Tcr3vnO2-7GO_Q-4" value="系统主界面" style="rounded=0;whiteSpace=wrap;html=1;" vertex="1" parent="1">
          <mxGeometry x="300" y="260" width="120" height="40" as="geometry" />
        </mxCell>
        <mxCell id="0DfjW3Tcr3vnO2-7GO_Q-19" style="rounded=0;orthogonalLoop=1;jettySize=auto;html=1;exitX=0.5;exitY=1;exitDx=0;exitDy=0;entryX=0.5;entryY=0;entryDx=0;entryDy=0;" edge="1" parent="1" source="0DfjW3Tcr3vnO2-7GO_Q-5" target="0DfjW3Tcr3vnO2-7GO_Q-6">
          <mxGeometry relative="1" as="geometry" />
        </mxCell>
        <mxCell id="0DfjW3Tcr3vnO2-7GO_Q-21" style="rounded=0;orthogonalLoop=1;jettySize=auto;html=1;exitX=0.5;exitY=1;exitDx=0;exitDy=0;entryX=0.5;entryY=0;entryDx=0;entryDy=0;" edge="1" parent="1" source="0DfjW3Tcr3vnO2-7GO_Q-5" target="0DfjW3Tcr3vnO2-7GO_Q-8">
          <mxGeometry relative="1" as="geometry" />
        </mxCell>
        <mxCell id="0DfjW3Tcr3vnO2-7GO_Q-22" style="rounded=0;orthogonalLoop=1;jettySize=auto;html=1;exitX=0.5;exitY=1;exitDx=0;exitDy=0;entryX=0.5;entryY=0;entryDx=0;entryDy=0;" edge="1" parent="1" source="0DfjW3Tcr3vnO2-7GO_Q-5" target="0DfjW3Tcr3vnO2-7GO_Q-17">
          <mxGeometry relative="1" as="geometry" />
        </mxCell>
        <mxCell id="0DfjW3Tcr3vnO2-7GO_Q-24" style="rounded=0;orthogonalLoop=1;jettySize=auto;html=1;exitX=0.5;exitY=1;exitDx=0;exitDy=0;entryX=0;entryY=0.5;entryDx=0;entryDy=0;" edge="1" parent="1" source="0DfjW3Tcr3vnO2-7GO_Q-5" target="0DfjW3Tcr3vnO2-7GO_Q-7">
          <mxGeometry relative="1" as="geometry" />
        </mxCell>
        <mxCell id="0DfjW3Tcr3vnO2-7GO_Q-5" value="传感器信息读取" style="rounded=0;whiteSpace=wrap;html=1;" vertex="1" parent="1">
          <mxGeometry x="321.5" y="330" width="77" height="30" as="geometry" />
        </mxCell>
        <mxCell id="0DfjW3Tcr3vnO2-7GO_Q-25" style="edgeStyle=orthogonalEdgeStyle;rounded=0;orthogonalLoop=1;jettySize=auto;html=1;exitX=0.5;exitY=1;exitDx=0;exitDy=0;entryX=0.5;entryY=0;entryDx=0;entryDy=0;" edge="1" parent="1" source="0DfjW3Tcr3vnO2-7GO_Q-6" target="0DfjW3Tcr3vnO2-7GO_Q-9">
          <mxGeometry relative="1" as="geometry" />
        </mxCell>
        <mxCell id="0DfjW3Tcr3vnO2-7GO_Q-6" value="温度控制模块" style="rounded=0;whiteSpace=wrap;html=1;" vertex="1" parent="1">
          <mxGeometry x="171" y="380" width="77" height="30" as="geometry" />
        </mxCell>
        <mxCell id="0DfjW3Tcr3vnO2-7GO_Q-26" style="edgeStyle=orthogonalEdgeStyle;rounded=0;orthogonalLoop=1;jettySize=auto;html=1;exitX=1;exitY=0.5;exitDx=0;exitDy=0;entryX=0.568;entryY=-0.043;entryDx=0;entryDy=0;entryPerimeter=0;" edge="1" parent="1" source="0DfjW3Tcr3vnO2-7GO_Q-7" target="0DfjW3Tcr3vnO2-7GO_Q-15">
          <mxGeometry relative="1" as="geometry" />
        </mxCell>
        <mxCell id="0DfjW3Tcr3vnO2-7GO_Q-7" value="湿度控制模块" style="rounded=0;whiteSpace=wrap;html=1;direction=south;" vertex="1" parent="1">
          <mxGeometry x="280" y="380" width="78.5" height="33.5" as="geometry" />
        </mxCell>
        <mxCell id="0DfjW3Tcr3vnO2-7GO_Q-27" style="edgeStyle=orthogonalEdgeStyle;rounded=0;orthogonalLoop=1;jettySize=auto;html=1;exitX=0.5;exitY=1;exitDx=0;exitDy=0;entryX=0.5;entryY=0;entryDx=0;entryDy=0;" edge="1" parent="1" source="0DfjW3Tcr3vnO2-7GO_Q-8" target="0DfjW3Tcr3vnO2-7GO_Q-16">
          <mxGeometry relative="1" as="geometry" />
        </mxCell>
        <mxCell id="0DfjW3Tcr3vnO2-7GO_Q-8" value="光照控制模块" style="rounded=0;whiteSpace=wrap;html=1;" vertex="1" parent="1">
          <mxGeometry x="394" y="380" width="77" height="30" as="geometry" />
        </mxCell>
        <mxCell id="0DfjW3Tcr3vnO2-7GO_Q-29" style="rounded=0;orthogonalLoop=1;jettySize=auto;html=1;exitX=0.5;exitY=1;exitDx=0;exitDy=0;entryX=0.441;entryY=-0.128;entryDx=0;entryDy=0;entryPerimeter=0;" edge="1" parent="1" source="0DfjW3Tcr3vnO2-7GO_Q-9" target="0DfjW3Tcr3vnO2-7GO_Q-13">
          <mxGeometry relative="1" as="geometry" />
        </mxCell>
        <mxCell id="0DfjW3Tcr3vnO2-7GO_Q-9" value="获取当前温度" style="rounded=0;whiteSpace=wrap;html=1;" vertex="1" parent="1">
          <mxGeometry x="171" y="440" width="77" height="30" as="geometry" />
        </mxCell>
        <mxCell id="0DfjW3Tcr3vnO2-7GO_Q-59" style="edgeStyle=orthogonalEdgeStyle;rounded=0;orthogonalLoop=1;jettySize=auto;html=1;exitX=1;exitY=0.5;exitDx=0;exitDy=0;entryX=1;entryY=0.5;entryDx=0;entryDy=0;" edge="1" parent="1" source="0DfjW3Tcr3vnO2-7GO_Q-11" target="0DfjW3Tcr3vnO2-7GO_Q-4">
          <mxGeometry relative="1" as="geometry">
            <Array as="points">
              <mxPoint x="490" y="569" />
              <mxPoint x="490" y="280" />
            </Array>
          </mxGeometry>
        </mxCell>
        <mxCell id="0DfjW3Tcr3vnO2-7GO_Q-11" value="修改信息录入数据库" style="rounded=0;whiteSpace=wrap;html=1;" vertex="1" parent="1">
          <mxGeometry x="336" y="554" width="77" height="30" as="geometry" />
        </mxCell>
        <mxCell id="0DfjW3Tcr3vnO2-7GO_Q-33" style="edgeStyle=orthogonalEdgeStyle;rounded=0;orthogonalLoop=1;jettySize=auto;html=1;exitX=0.5;exitY=1;exitDx=0;exitDy=0;entryX=0.5;entryY=0;entryDx=0;entryDy=0;" edge="1" parent="1" source="0DfjW3Tcr3vnO2-7GO_Q-13" target="0DfjW3Tcr3vnO2-7GO_Q-11">
          <mxGeometry relative="1" as="geometry" />
        </mxCell>
        <mxCell id="0DfjW3Tcr3vnO2-7GO_Q-13" value="根据设定阈值进行调节" style="rounded=0;whiteSpace=wrap;html=1;" vertex="1" parent="1">
          <mxGeometry x="336" y="500" width="77" height="30" as="geometry" />
        </mxCell>
        <mxCell id="0DfjW3Tcr3vnO2-7GO_Q-30" style="rounded=0;orthogonalLoop=1;jettySize=auto;html=1;exitX=0.5;exitY=1;exitDx=0;exitDy=0;" edge="1" parent="1" source="0DfjW3Tcr3vnO2-7GO_Q-15">
          <mxGeometry relative="1" as="geometry">
            <mxPoint x="370" y="500" as="targetPoint" />
          </mxGeometry>
        </mxCell>
        <mxCell id="0DfjW3Tcr3vnO2-7GO_Q-15" value="获取当前适度" style="rounded=0;whiteSpace=wrap;html=1;" vertex="1" parent="1">
          <mxGeometry x="277" y="440" width="77" height="30" as="geometry" />
        </mxCell>
        <mxCell id="0DfjW3Tcr3vnO2-7GO_Q-31" style="rounded=0;orthogonalLoop=1;jettySize=auto;html=1;exitX=0.5;exitY=1;exitDx=0;exitDy=0;entryX=0.5;entryY=0;entryDx=0;entryDy=0;" edge="1" parent="1" source="0DfjW3Tcr3vnO2-7GO_Q-16" target="0DfjW3Tcr3vnO2-7GO_Q-13">
          <mxGeometry relative="1" as="geometry" />
        </mxCell>
        <mxCell id="0DfjW3Tcr3vnO2-7GO_Q-16" value="获取当前光照强度" style="rounded=0;whiteSpace=wrap;html=1;" vertex="1" parent="1">
          <mxGeometry x="394" y="440" width="77" height="30" as="geometry" />
        </mxCell>
        <mxCell id="0DfjW3Tcr3vnO2-7GO_Q-28" style="edgeStyle=orthogonalEdgeStyle;rounded=0;orthogonalLoop=1;jettySize=auto;html=1;exitX=0.5;exitY=1;exitDx=0;exitDy=0;entryX=0.5;entryY=0;entryDx=0;entryDy=0;" edge="1" parent="1" source="0DfjW3Tcr3vnO2-7GO_Q-17" target="0DfjW3Tcr3vnO2-7GO_Q-18">
          <mxGeometry relative="1" as="geometry" />
        </mxCell>
        <mxCell id="0DfjW3Tcr3vnO2-7GO_Q-17" value="土壤成分管理模块" style="rounded=0;whiteSpace=wrap;html=1;" vertex="1" parent="1">
          <mxGeometry x="501" y="380" width="77" height="30" as="geometry" />
        </mxCell>
        <mxCell id="0DfjW3Tcr3vnO2-7GO_Q-32" style="rounded=0;orthogonalLoop=1;jettySize=auto;html=1;exitX=0.5;exitY=1;exitDx=0;exitDy=0;" edge="1" parent="1" source="0DfjW3Tcr3vnO2-7GO_Q-18">
          <mxGeometry relative="1" as="geometry">
            <mxPoint x="370" y="500" as="targetPoint" />
          </mxGeometry>
        </mxCell>
        <mxCell id="0DfjW3Tcr3vnO2-7GO_Q-18" value="获取当前土壤成分" style="rounded=0;whiteSpace=wrap;html=1;" vertex="1" parent="1">
          <mxGeometry x="501" y="440" width="77" height="30" as="geometry" />
        </mxCell>
        <mxCell id="0DfjW3Tcr3vnO2-7GO_Q-44" style="edgeStyle=orthogonalEdgeStyle;rounded=0;orthogonalLoop=1;jettySize=auto;html=1;exitX=0.5;exitY=1;exitDx=0;exitDy=0;entryX=0.5;entryY=0;entryDx=0;entryDy=0;" edge="1" parent="1" source="0DfjW3Tcr3vnO2-7GO_Q-38" target="0DfjW3Tcr3vnO2-7GO_Q-40">
          <mxGeometry relative="1" as="geometry" />
        </mxCell>
        <mxCell id="0DfjW3Tcr3vnO2-7GO_Q-38" value="传感器信息管理模块" style="rounded=0;whiteSpace=wrap;html=1;" vertex="1" parent="1">
          <mxGeometry x="626.5" y="330" width="77" height="30" as="geometry" />
        </mxCell>
        <mxCell id="0DfjW3Tcr3vnO2-7GO_Q-42" value="Y" style="edgeStyle=orthogonalEdgeStyle;rounded=0;orthogonalLoop=1;jettySize=auto;html=1;exitX=1;exitY=0.5;exitDx=0;exitDy=0;entryX=0;entryY=0.5;entryDx=0;entryDy=0;" edge="1" parent="1" source="0DfjW3Tcr3vnO2-7GO_Q-40" target="0DfjW3Tcr3vnO2-7GO_Q-41">
          <mxGeometry relative="1" as="geometry" />
        </mxCell>
        <mxCell id="0DfjW3Tcr3vnO2-7GO_Q-53" value="N" style="edgeStyle=orthogonalEdgeStyle;rounded=0;orthogonalLoop=1;jettySize=auto;html=1;exitX=0.5;exitY=1;exitDx=0;exitDy=0;entryX=0.5;entryY=0;entryDx=0;entryDy=0;" edge="1" parent="1" source="0DfjW3Tcr3vnO2-7GO_Q-40" target="0DfjW3Tcr3vnO2-7GO_Q-48">
          <mxGeometry relative="1" as="geometry" />
        </mxCell>
        <mxCell id="0DfjW3Tcr3vnO2-7GO_Q-40" value="是否添加传感器" style="rhombus;whiteSpace=wrap;html=1;" vertex="1" parent="1">
          <mxGeometry x="620" y="380" width="90" height="40" as="geometry" />
        </mxCell>
        <mxCell id="0DfjW3Tcr3vnO2-7GO_Q-52" style="edgeStyle=orthogonalEdgeStyle;rounded=0;orthogonalLoop=1;jettySize=auto;html=1;exitX=0.5;exitY=1;exitDx=0;exitDy=0;entryX=0.5;entryY=0;entryDx=0;entryDy=0;" edge="1" parent="1" source="0DfjW3Tcr3vnO2-7GO_Q-41" target="0DfjW3Tcr3vnO2-7GO_Q-48">
          <mxGeometry relative="1" as="geometry">
            <Array as="points">
              <mxPoint x="778" y="435" />
              <mxPoint x="665" y="435" />
            </Array>
          </mxGeometry>
        </mxCell>
        <mxCell id="0DfjW3Tcr3vnO2-7GO_Q-41" value="录入传感器信息" style="rounded=0;whiteSpace=wrap;html=1;" vertex="1" parent="1">
          <mxGeometry x="740" y="385" width="77" height="30" as="geometry" />
        </mxCell>
        <mxCell id="0DfjW3Tcr3vnO2-7GO_Q-51" value="Y" style="edgeStyle=orthogonalEdgeStyle;rounded=0;orthogonalLoop=1;jettySize=auto;html=1;exitX=1;exitY=0.5;exitDx=0;exitDy=0;entryX=0;entryY=0.5;entryDx=0;entryDy=0;" edge="1" parent="1" source="0DfjW3Tcr3vnO2-7GO_Q-48" target="0DfjW3Tcr3vnO2-7GO_Q-49">
          <mxGeometry relative="1" as="geometry" />
        </mxCell>
        <mxCell id="0DfjW3Tcr3vnO2-7GO_Q-56" value="N" style="edgeStyle=orthogonalEdgeStyle;rounded=0;orthogonalLoop=1;jettySize=auto;html=1;exitX=0.5;exitY=1;exitDx=0;exitDy=0;entryX=0.423;entryY=-0.001;entryDx=0;entryDy=0;entryPerimeter=0;" edge="1" parent="1" source="0DfjW3Tcr3vnO2-7GO_Q-48" target="0DfjW3Tcr3vnO2-7GO_Q-54">
          <mxGeometry relative="1" as="geometry" />
        </mxCell>
        <mxCell id="0DfjW3Tcr3vnO2-7GO_Q-48" value="是否修改传感器信息" style="rhombus;whiteSpace=wrap;html=1;" vertex="1" parent="1">
          <mxGeometry x="620" y="445" width="90" height="40" as="geometry" />
        </mxCell>
        <mxCell id="0DfjW3Tcr3vnO2-7GO_Q-55" style="edgeStyle=orthogonalEdgeStyle;rounded=0;orthogonalLoop=1;jettySize=auto;html=1;exitX=0.5;exitY=1;exitDx=0;exitDy=0;entryX=1;entryY=0.5;entryDx=0;entryDy=0;" edge="1" parent="1" source="0DfjW3Tcr3vnO2-7GO_Q-49" target="0DfjW3Tcr3vnO2-7GO_Q-54">
          <mxGeometry relative="1" as="geometry" />
        </mxCell>
        <mxCell id="0DfjW3Tcr3vnO2-7GO_Q-49" value="修改信息" style="rounded=0;whiteSpace=wrap;html=1;" vertex="1" parent="1">
          <mxGeometry x="750" y="450" width="77" height="30" as="geometry" />
        </mxCell>
        <mxCell id="0DfjW3Tcr3vnO2-7GO_Q-58" style="edgeStyle=orthogonalEdgeStyle;rounded=0;orthogonalLoop=1;jettySize=auto;html=1;exitX=0.5;exitY=1;exitDx=0;exitDy=0;entryX=1;entryY=0.5;entryDx=0;entryDy=0;" edge="1" parent="1" source="0DfjW3Tcr3vnO2-7GO_Q-54" target="0DfjW3Tcr3vnO2-7GO_Q-4">
          <mxGeometry relative="1" as="geometry">
            <Array as="points">
              <mxPoint x="672" y="560" />
              <mxPoint x="610" y="560" />
              <mxPoint x="610" y="280" />
            </Array>
          </mxGeometry>
        </mxCell>
        <mxCell id="0DfjW3Tcr3vnO2-7GO_Q-54" value="发送改动成功提示" style="rounded=0;whiteSpace=wrap;html=1;" vertex="1" parent="1">
          <mxGeometry x="633" y="510" width="77" height="30" as="geometry" />
        </mxCell>
        <mxCell id="0DfjW3Tcr3vnO2-7GO_Q-65" style="edgeStyle=orthogonalEdgeStyle;rounded=0;orthogonalLoop=1;jettySize=auto;html=1;exitX=0.5;exitY=1;exitDx=0;exitDy=0;entryX=0.5;entryY=0;entryDx=0;entryDy=0;" edge="1" parent="1" source="0DfjW3Tcr3vnO2-7GO_Q-61" target="0DfjW3Tcr3vnO2-7GO_Q-62">
          <mxGeometry relative="1" as="geometry" />
        </mxCell>
        <mxCell id="0DfjW3Tcr3vnO2-7GO_Q-61" value="人员管理模块" style="rounded=0;whiteSpace=wrap;html=1;" vertex="1" parent="1">
          <mxGeometry x="70" y="330" width="77" height="30" as="geometry" />
        </mxCell>
        <mxCell id="0DfjW3Tcr3vnO2-7GO_Q-66" style="edgeStyle=orthogonalEdgeStyle;rounded=0;orthogonalLoop=1;jettySize=auto;html=1;exitX=0.5;exitY=1;exitDx=0;exitDy=0;entryX=0;entryY=0.5;entryDx=0;entryDy=0;" edge="1" parent="1" source="0DfjW3Tcr3vnO2-7GO_Q-62" target="0DfjW3Tcr3vnO2-7GO_Q-4">
          <mxGeometry relative="1" as="geometry">
            <Array as="points">
              <mxPoint x="108" y="450" />
              <mxPoint x="50" y="450" />
              <mxPoint x="50" y="280" />
            </Array>
          </mxGeometry>
        </mxCell>
        <mxCell id="0DfjW3Tcr3vnO2-7GO_Q-62" value="肥料购买，施肥信息录入" style="rounded=0;whiteSpace=wrap;html=1;" vertex="1" parent="1">
          <mxGeometry x="70" y="400" width="77" height="30" as="geometry" />
        </mxCell>
      </root>
    </mxGraphModel>
  </diagram>
</mxfile>
